<?xml version="1.0" encoding="UTF-8"?><svg id="Layer_1" xmlns="http://www.w3.org/2000/svg" viewBox="0 0 531 548"><path d="m202.97-51.67l-61.32,22.08-73.33,219.98-4.99,19.97c.24.74.47,1.46.71,2.2,38.9,0,77.61,1.59,116.04-.99,11.24-.76,25.95-10.96,31.73-21.04,20.58-35.89,39.97-72.77,55.98-110.88,12.21-29.06,28.4-30.26,54.23-19.92,61.8,24.73,99.49,71.15,123.73,130.83v65.99c-19.08,35.64-38.16,71.28-57.67,107.73,60.89,44.82,59.51,94.85-8.32,141.58h-44c-38.27-22.96-61.29-53.43-46.89-102.01h-52.52c13.63,48.52-8.97,79.21-47.24,102.01h-44c-64.77-44.58-68.44-83.33-19.44-135.39-24.4-45.82-47.48-89.14-69.68-130.83l-9.68,38.73v198.5s58.66,190.12,65.99,190.12,381.29-95.32,381.29-95.32l51.33-322.63V.74L202.97-51.67Z" style="fill:none;"/><path d="m145.13,505.86h44c38.27-22.79,60.87-53.48,47.24-102.01h52.52c-14.4,48.57,8.62,79.04,46.89,102.01h44c67.83-46.72,69.21-96.75,8.32-141.58,19.52-36.45,38.6-72.09,57.67-107.73v-65.99c-24.25-59.67-61.93-106.1-123.73-130.83-25.83-10.33-42.03-9.13-54.23,19.92-16.01,38.11-35.4,74.99-55.98,110.88-5.78,10.08-20.49,20.28-31.73,21.04-38.43,2.58-77.14.99-116.04.99-.24-.74-.47-1.46-.71-2.2l-7.32,29.28c22.2,41.68,45.28,85.01,69.68,130.83-49.01,52.06-45.33,90.81,19.44,135.39Zm21.3-30.18c-27.21-.57-43.23-17.44-42.49-44.75.69-25.43,16.57-41.08,42.02-41.63,27.56-.59,41.65,16.34,45.29,42.97-3.35,26.67-17.31,43.98-44.82,43.4Zm234.55-45.09c1.29,27.8-16.32,41.3-40.25,46.29-28.63-3.12-46.2-16.66-46.13-44.26.07-27.31,16.69-43.47,43.96-43.29,25.51.17,41.26,15.92,42.43,41.26Zm-103.27-342.92c66.3,18.3,106.98,63.7,112.04,123.31h-173.83c21.73-43.36,41.92-83.65,61.79-123.31ZM101.03,242.92h304.91c6.17,61.39-57.61,122.99-134.03,130.32-86.93,8.33-164.15-49.03-170.88-130.32Z"/></svg>