<?xml version="1.0" encoding="UTF-8"?><svg id="Layer_1" xmlns="http://www.w3.org/2000/svg" viewBox="0 0 561 580"><path d="m210.11,336.91c-10.09-32.27-20.14-64.55-30.29-96.81-5.74-18.24-4.55-35.31,7.13-51.25,1.71-2.33,1.54-7.01.51-10-.58-1.69-4.73-3.13-7.21-3.03-7.57.31-11.57-2.28-14.17-9.98-5.19-15.38-11.39-30.47-18.02-45.31-4.41-9.89-.5-15.77,7.92-19.14,26.43-10.59,52.73-21.67,79.76-30.52,17.85-5.85,36.75-8.72,55.36-11.91,13.26-2.27,15.75-.52,18.95,12.67,4.14,17.03,7.58,34.27,10.21,51.6.48,3.17-4.25,7.23-6.8,10.72-1.81,2.49-6.03,5.27-5.57,6.94.89,3.26,3.73,7.24,6.75,8.46,15.22,6.13,25.05,17.09,29.86,32.32,21.66,68.63,43.16,137.31,64.44,206.06,5.33,17.2-2.04,32.65-19.76,38.61-35.86,12.06-71.98,23.41-108.31,33.97-18.4,5.35-33.21-3.8-39.06-22.16-10.73-33.69-21.16-67.49-31.72-101.24Zm92.3-195c-36.92,11.55-73.07,22.85-109.95,34.38,5.4,7.6.96,13.67-3.66,20.29-7.09,10.15-9.46,21.9-5.81,33.73,21.6,69.98,43.54,139.85,65.48,209.72,3.01,9.6,10.31,15.04,20.03,15.46,6.96.3,14.28-.82,20.98-2.82,27.36-8.15,54.56-16.82,81.77-25.47,6.48-2.06,13.02-4.24,19.06-7.3,13.24-6.71,17.76-17.69,13.25-31.75-1.82-5.69-5.37-10.85-6.95-16.58-3.45-12.48-6.14-25.18-9.47-39.13-45.16,14.12-88.47,27.67-131.54,41.14-3.79-12.12-7.19-22.98-10.59-33.85.53-.16,1.05-.31,1.58-.47,3.38,10.8,6.75,21.59,10.12,32.37,43.36-13.56,85.83-26.84,128.49-40.18-.28-1.88-.31-3.12-.66-4.25-15.25-48.79-30.39-97.61-45.89-146.32-3.41-10.72-10.53-19.1-20.98-23.73-7.43-3.29-14.89-5.99-15.26-15.25Zm1.18-70.79c-47.08,24.43-97.06,39.69-150.36,47.05,3.92,6.47.88,17.27,11.52,15.98-.08,2.77-.75,5.46-.11,7.8,1.81,6.58,4.84,12.87,6.11,19.52,1.67,8.67,6.64,9.73,14.09,8.61,40.48-6.1,79.12-18.36,116.23-35.35,15.32-7.02,15.01-7.66,10.21-23.46-1.35-4.45-2.36-9.02-3.95-13.39-.89-2.47-2.64-4.63-4.09-7.08,6.92-5.44,6.95-5.91.35-19.67Zm-149.84,39.42c51.95-4.81,100.66-19.73,145.88-45.69-51.87,4.86-100.48,20.2-145.88,45.69Z" style="fill:#a3d6d2;"/><path d="m255.22,416.63c-17.04-54.49-34.08-108.97-51.29-164,5.87-1.84,11.62-3.63,17.36-5.43.09.28.18.56.27.84-4.94,1.54-9.87,3.09-15.82,4.95,17.07,54.6,34.05,108.88,51.03,163.17-.52.16-1.04.32-1.55.48Z" style="fill:#a3d6d2;"/><path d="m324.66,217.76c-28.67,8.97-57.34,17.93-86.01,26.9l-.3-.94c28.7-8.97,57.39-17.95,86.09-26.92.07.32.15.65.22.97Z" style="fill:#a3d6d2;"/><path d="m304.8,406.28c15.54-4.86,31.09-9.72,46.63-14.58.09.28.18.56.26.84-15.54,4.86-31.09,9.72-46.63,14.58-.09-.28-.18-.56-.26-.84Z" style="fill:#a3d6d2;"/><path d="m205.37,127.1c20.31-6.35,40.61-12.7,60.92-19.05.08.26.16.51.25.77-20.31,6.35-40.62,12.7-60.92,19.05-.08-.26-.16-.51-.25-.77Z" style="fill:#a3d6d2;"/></svg>