<?xml version="1.0" encoding="UTF-8"?><svg id="Layer_1" xmlns="http://www.w3.org/2000/svg" viewBox="0 0 454 783"><path d="m389.64,482.45c.11.21.23.42.34.63l7.32-29.29c-14.98-46.61-29.54-92.3-44.36-137.89-35.4-108.9-36.42-109.58-151.64-109.2-59.04.19-77.23,13.47-96.14,69.5-19.42,57.53-39.12,114.98-58.69,172.46v22c12.08,11.04,24.16,22.08,38.29,35-3.89,48.13-3.69,48.34,64.39,56.1,0,41.7,1.23,83.92-.44,126.03-1.07,26.88,7.21,47.11,29.76,61.52h87.99c22.67-14.55,30.84-35,29.75-61.98-1.67-41.27-.44-82.66-.44-120.81,22.64-7.99,44.01-12.08,60.79-23.15,6.7-4.42,3.24-24.23,4.77-40.9,8.09-5.71,20.65-14.59,28.32-20Zm-182.49,213.29c-.22,7.7-8.28,15.17-12.72,22.75-5.31-7.92-14.88-15.67-15.22-23.8-1.61-39.02-1.69-78.19.11-117.2.36-7.73,11.37-14.96,17.47-22.42,3.65,3.02,7.3,6.04,10.96,9.06,0,43.87.64,87.76-.6,131.6Zm58.52-.65c-.34,8.01-10.16,15.61-15.61,23.4-4.3-7.71-12.11-15.33-12.33-23.15-1.21-43.82-.58-87.69-.58-131.54,3.8-2.96,7.59-5.91,11.39-8.87,5.96,7.64,16.7,15.06,17.06,22.95,1.78,39.01,1.7,78.18.06,117.2Zm85.16-222.98c-5.16-9.8-11.56-19.15-15.25-29.48-10.24-28.64-18.14-58.18-29.49-86.34-4.69-11.63-15.82-20.66-24.02-30.87-1.12,12.88-6.04,26.86-2.69,38.44,12.52,43.24,27.82,85.68,41.91,128.47,3.72,11.31,6.85,22.82,10.77,35.97H112.4c13.98-42.75,27.33-83.64,40.73-124.52,4.55-13.88,11.04-27.44,13.29-41.68,1.84-11.63-1.31-24.04-2.24-36.11-8.06,8.49-19.48,15.63-23.54,25.73-11.78,29.31-20.21,59.95-30.78,89.77-3.73,10.53-9.85,20.2-14.88,30.27-3.72-.71-7.44-1.42-11.16-2.13,0-11.17-2.68-23.16.45-33.38,16.37-53.55,34.24-106.63,51.54-159.9,8.94-27.53,25.83-41.51,56.74-40.72,106.62,2.72,98.94-16.5,133.93,95.18,10.92,34.85,23.49,69.19,33.84,104.2,3.17,10.7,1.45,22.84,1.98,34.32-3.82.93-7.64,1.86-11.46,2.79Z"/><path d="m248.11,23.2h-44c-8.35,4.81-16.96,9.22-25.02,14.48-33.96,22.18-48.41,61.6-36.51,98.78,12.54,39.2,49.33,64.92,89.04,62.27,39.48-2.64,73.95-33.55,81.16-72.79,7.59-41.31-13.21-74.36-64.67-102.75Zm-22.32,146.38c-33.06-.18-59.8-28.48-58.05-61.43,1.68-31.66,28.85-56.54,60.45-55.35,31.7,1.19,56.98,27.94,56.29,59.57-.69,31.65-27.09,57.39-58.69,57.22Z"/></svg>