<?xml version="1.0" encoding="UTF-8"?><svg id="Layer_1" xmlns="http://www.w3.org/2000/svg" viewBox="0 0 497 605"><path d="m361.08,455.7c-10.26,1.46-14.79-.27-19.9-8.05-7.98-12.15-16.66-23.83-25.08-35.68-.94-1.33-1.94-3.33-3.21-3.59-6.37-1.29-4.74-4.33-2.08-7.11-2.34-7.45-6.82-9.53-13.51-6.9-8.14,3.19-12.95,0-17.87-7.05-39.57-56.74-79.58-113.18-119.47-169.7-.59-.83-1.29-1.58-2.24-2.73-4.19,2.89-8.25,5.67-12.29,8.48-3.11,2.17-6.2,2.83-8.7-.68-2.4-3.39-.44-5.86,2.31-7.87,5.18-3.77,10.4-7.47,15.99-11.47-6.66-9.51-13.37-18.47-19.38-27.87-3.88-6.08-7.94-12.48-9.82-19.31-6.23-22.71-20.6-40.46-34.18-59.4-3.92,2.73-7.38,5.84-11.42,7.68-2.23,1.02-5.43-.09-8.19-.25.74-2.66.61-6.51,2.37-7.81,14.71-10.85,29.66-21.38,44.84-31.58,1.84-1.24,6.49-1.02,7.93.43,2.97,2.98.72,6-2.35,8.13-3.54,2.45-7.04,4.97-10.62,7.5,13.01,19.83,26.8,37.82,45.21,52.59,11.05,8.87,18.63,22.06,27.7,33.37,2.2,2.74,4.08,5.73,6.56,9.24,5.22-3.64,10.25-7.13,15.26-10.65,3.08-2.16,6.38-4.03,9.26-.18,3.19,4.26-.08,6.85-3.22,9.15-3.5,2.57-7.09,5.02-11.2,7.93,6.8,9.69,13.41,19.16,20.06,28.59,34.36,48.73,68.63,97.52,103.22,146.08,3.93,5.51,4.4,9.92.43,15.08-.37.49-.5,1.18-.9,1.62-4.65,5.13-5.13,10.07,1.25,15.02,4.53-1.99,7.28-.72,6.67,5.36-.09.95,1.27,2.06,1.98,3.08,8.62,12.23,17.05,24.59,25.94,36.61,5.09,6.89,5.18,11.58.77,20.41-.71.51-1.41,1.01-2.12,1.52Zm-35.42-64.44c-10.01-6.76-6.89-13.56-1.65-20.38.25-.33.38-.76.64-1.07,3.02-3.63,2.29-6.71-.39-10.49-38.72-54.57-77.28-109.25-115.86-163.92-3.18-4.51-6.17-9.15-9.37-13.91,6.14-4.59,11.61-8.69,18.41-13.78-7.62.06-76.59,49.22-77.28,54.62,6.47-4.33,12.34-8.27,18.5-12.39,2.1,2.75,3.93,4.98,5.59,7.33,40,56.72,80.02,113.42,119.91,170.22,2.57,3.67,4.95,5.59,9.69,4.12,8.44-2.63,17-4.65,20.11,7.89,4.12-2.9,7.29-5.12,11.71-8.24ZM125.08,68.41c-.58-.77-1.15-1.54-1.73-2.31-16.36,11.58-32.72,23.15-49.08,34.73.49.74.97,1.48,1.46,2.23,5.52-3.63,11.04-7.26,16.98-11.17,13.67,19.57,29.11,37.4,35.61,60.7,5.29,18.95,19.56,32.41,29.71,48.8,11.34-8.03,21.94-15.53,32.64-23.1-3.8-5.52-7.36-10.37-10.6-15.44-8.48-13.28-18.88-24.67-31.54-34.16-17.01-12.74-26.9-31.35-39.51-48.46,5.66-4.17,10.87-8,16.07-11.83Zm187.53,335.08c1.9,1.6,3.77,2.64,4.89,4.21,9.02,12.67,17.87,25.46,26.84,38.17,4.21,5.97,10.6,8.28,14.76,5.5,4.17-2.79,4.24-10.01.12-15.82-7.69-10.82-15.42-21.61-23.06-32.46-2.51-3.57-4.79-7.3-7.26-11.09-5.43,3.83-11.18,7.87-16.3,11.48Z" style="fill:#a3d6d2;"/><path d="m224.34,228.05c-.95.94-1.94,1.83-2.93,2.71l-3.28,2.18-6.56,4.37-6.56,4.37-3.28,2.19c-1.21.55-2.39,1.15-3.62,1.67.95-.94,1.96-1.8,2.93-2.7l3.28-2.19,6.56-4.37,6.56-4.37,3.28-2.19c1.19-.58,2.39-1.15,3.63-1.66,0,0-1.24.51,0,0Z" style="fill:#a3d6d2;"/><path d="m215.6,248.03c.46-.68.97-1.29,1.48-1.91l1.86-1.4,3.72-2.81,3.72-2.81,1.86-1.4c.73-.32,1.47-.64,2.24-.91-.47.67-.98,1.28-1.48,1.9l-1.86,1.4-3.72,2.81-3.72,2.81-1.86,1.41c-.73.32-1.46.64-2.24.9,0,0,.78-.26,0,0Z" style="fill:#a3d6d2;"/><path d="m237.6,245.54c-.45.68-.94,1.29-1.44,1.91l-1.83,1.4-3.64,2.82-3.64,2.82-1.82,1.41c-.72.32-1.44.64-2.2.92.45-.67.95-1.28,1.44-1.9l1.82-1.41,3.64-2.82,3.64-2.82,1.82-1.41c.72-.32,1.44-.65,2.21-.91,0,0-.77.26,0,0Z" style="fill:#a3d6d2;"/><path d="m243.84,256.81c-.87.95-1.79,1.85-2.71,2.74l-3.08,2.22-6.15,4.46-6.15,4.46-3.08,2.23c-1.15.57-2.27,1.19-3.44,1.72.88-.95,1.81-1.82,2.71-2.73l3.08-2.23,6.15-4.46,6.15-4.46,3.07-2.23c1.13-.59,2.27-1.19,3.45-1.72,0,0-1.18.53,0,0Z" style="fill:#a3d6d2;"/><path d="m250.53,265.72c-.58.67-1.19,1.27-1.81,1.87l-2.15,1.33-4.29,2.67-4.29,2.67-2.14,1.34c-.81.28-1.63.57-2.47.81.58-.66,1.2-1.26,1.81-1.87l2.14-1.34,4.29-2.67,4.29-2.67,2.14-1.34c.81-.29,1.62-.58,2.48-.8,0,0-.85.22,0,0Z" style="fill:#a3d6d2;"/><path d="m256.81,274.26c-.48.61-1,1.15-1.52,1.7l-1.86,1.16-3.71,2.34-3.71,2.34-1.86,1.17c-.72.23-1.44.46-2.19.64.49-.6,1.01-1.15,1.52-1.7l1.86-1.17,3.71-2.34,3.71-2.34,1.85-1.17c.72-.23,1.43-.46,2.19-.63,0,0-.76.17,0,0Z" style="fill:#a3d6d2;"/><path d="m263.46,283.6c-.92,1.01-1.89,1.95-2.86,2.9l-3.23,2.39-6.46,4.78-6.46,4.78-3.23,2.39c-1.2.63-2.37,1.29-3.6,1.89.93-1,1.91-1.93,2.86-2.89l3.23-2.39,6.46-4.78,6.46-4.78,3.23-2.39c1.19-.65,2.37-1.3,3.61-1.88,0,0-1.23.59,0,0Z" style="fill:#a3d6d2;"/><path d="m269.25,293.16c-.47.62-.98,1.17-1.49,1.72l-1.84,1.19-3.68,2.39-3.68,2.39-1.84,1.19c-.72.24-1.43.48-2.18.67.48-.61.99-1.16,1.5-1.72l1.84-1.19,3.68-2.39,3.68-2.39,1.84-1.2c.71-.24,1.43-.49,2.18-.67,0,0-.75.18,0,0Z" style="fill:#a3d6d2;"/><path d="m275.49,300.34c-.39.7-.84,1.35-1.28,1.99l-1.7,1.52-3.4,3.05-3.4,3.05-1.7,1.52c-.69.37-1.38.74-2.12,1.06.4-.69.84-1.34,1.28-1.99l1.7-1.52,3.4-3.05,3.4-3.05,1.7-1.53c.69-.37,1.38-.74,2.12-1.05,0,0-.74.31,0,0Z" style="fill:#a3d6d2;"/><path d="m281.78,310.47c-.89.96-1.82,1.87-2.75,2.77l-3.12,2.26-6.24,4.52-6.24,4.52-3.12,2.26c-1.16.58-2.3,1.21-3.49,1.76.89-.96,1.84-1.84,2.76-2.77l3.12-2.26,6.24-4.52,6.24-4.52,3.12-2.27c1.15-.61,2.3-1.21,3.49-1.75,0,0-1.19.54,0,0Z" style="fill:#a3d6d2;"/><path d="m288.86,319.52c-.39.67-.83,1.28-1.26,1.89l-1.68,1.4-3.34,2.82-3.34,2.82-1.67,1.41c-.68.32-1.36.65-2.07.93.4-.66.83-1.27,1.27-1.89l1.67-1.41,3.34-2.82,3.34-2.82,1.67-1.41c.68-.33,1.35-.66,2.08-.93,0,0-.72.27,0,0Z" style="fill:#a3d6d2;"/><path d="m295.1,328.57c-.4.63-.84,1.21-1.28,1.78l-1.67,1.28-3.33,2.56-3.33,2.56-1.66,1.28c-.67.28-1.34.56-2.05.79.4-.63.84-1.2,1.28-1.78l1.66-1.28,3.33-2.56,3.33-2.56,1.66-1.29c.67-.28,1.34-.56,2.05-.78,0,0-.71.22,0,0Z" style="fill:#a3d6d2;"/><path d="m301.79,338.82c-.95.96-1.94,1.86-2.93,2.75l-3.28,2.23-6.56,4.47-6.56,4.47-3.28,2.23c-1.21.57-2.4,1.18-3.63,1.72.95-.95,1.95-1.83,2.93-2.75l3.28-2.23,6.56-4.47,6.56-4.47,3.28-2.24c1.2-.59,2.4-1.18,3.64-1.71,0,0-1.24.53,0,0Z" style="fill:#a3d6d2;"/><path d="m308.92,347.75c-.41.67-.87,1.27-1.33,1.88l-1.73,1.39-3.45,2.78-3.45,2.78-1.73,1.39c-.69.32-1.39.64-2.12.9.42-.66.88-1.27,1.34-1.88l1.73-1.39,3.45-2.78,3.45-2.78,1.72-1.4c.69-.32,1.38-.64,2.12-.9,0,0-.74.26,0,0Z" style="fill:#a3d6d2;"/><polyline points="362.58 452.93 422.27 537.76 422.27 544 360.46 454.45" style="fill:none; stroke:#a3d6d2; stroke-miterlimit:10; stroke-width:1.25px;"/></svg>