<?xml version="1.0" encoding="UTF-8"?><svg id="Layer_1" xmlns="http://www.w3.org/2000/svg" viewBox="0 0 362 352"><path d="m258.59,72.72c13.34,5.71,25.28,15.64,32.13,30.96,2.21,4.95,3.38,10.18,2.45,15.68-.43,2.54-1.45,4.81-3.12,6.8-8.58,10.24-17.14,20.49-25.71,30.74-13.7,16.38-27.4,32.77-41.11,49.15-10.06,12.03-20.13,24.04-30.19,36.07-3.62,4.32-7.2,8.67-10.83,12.98-2.42,2.88-4.92,5.71-7.33,8.61-7.66,9.19-15.4,18.32-22.9,27.65-3.72,4.62-8.47,6.48-14.13,6.64-6.57.19-12.74-1.51-18.64-4.23-6.79-3.13-12.78-7.46-18.07-12.74-6.41-6.4-11.42-13.67-13.73-22.56-1.04-4.01-1.39-8.06-.21-12.14.72-2.51,2.26-4.47,3.89-6.42,9.32-11.11,18.61-22.24,27.92-33.36,11.98-14.33,23.96-28.65,35.94-42.98,14.36-17.17,28.71-34.33,43.07-51.5,10.23-12.24,20.49-24.46,30.69-36.72,2.73-3.28,6.21-4.92,10.37-5.52,6.1-.88,11.91.27,19.51,2.9Zm-2.81,5.34c-5.89-1.98-10.85-3.11-16.07-2.21-2.64.46-4.9,1.49-6.68,3.65-7.32,8.87-14.72,17.67-22.1,26.5-12.86,15.39-25.71,30.77-38.57,46.15-12.71,15.2-25.42,30.4-38.14,45.6-9.05,10.82-18.1,21.63-27.16,32.44-3.71,4.43-7.45,8.83-11.19,13.24-1.68,1.98-3.07,4.06-3.24,6.78-.29,4.46.73,8.65,2.71,12.57,6.76,13.43,17.45,22.45,31.51,27.51,4.3,1.55,8.8,2.18,13.39,1.36,2.24-.4,4.42-1.03,5.96-2.85,7.2-8.51,14.39-17.03,21.55-25.57,2.98-3.55,5.86-7.18,8.84-10.74,10.38-12.42,20.79-24.83,31.17-37.25,12.74-15.23,25.46-30.48,38.19-45.71,13.06-15.63,26.12-31.25,39.2-46.86,1.22-1.45,1.89-3.07,2.09-4.92.52-4.67-.64-9.03-2.68-13.15-6.37-12.87-16.73-21.36-28.78-26.54Z" style="fill:#a3d6d2;"/><path d="m148.88,189.86c1.11-1.56,2.13-3.19,3.35-4.65,10.8-12.99,21.66-25.94,32.46-38.93,2.12-2.56,4.44-4.7,7.84-5.29,3.34-.59,6.47-.05,9.13,2.14,7.8,6.45,15.56,12.96,23.33,19.45.91.76,1.82,1.51,2.7,2.3,4.61,4.07,5.26,11.05,1.35,15.77-7.96,9.62-15.99,19.18-23.98,28.77-3.56,4.26-7.1,8.54-10.66,12.81-3.38,4.04-7.64,5.44-12.69,3.96-1.39-.41-2.77-1.2-3.9-2.13-8.44-6.98-16.83-14.02-25.2-21.08-3.97-3.35-5.22-8.22-3.49-12.91-.08-.06-.17-.12-.25-.18Zm47.76-42.89c-2.35-.73-4.61-.08-6.31,1.95-11.46,13.72-22.92,27.45-34.36,41.19-2.42,2.9-2.12,6.07.78,8.5,8.15,6.84,16.3,13.66,24.46,20.49,3.04,2.54,6.1,2.25,8.65-.81,8.47-10.16,16.94-20.31,25.42-30.47,2.97-3.56,5.95-7.12,8.91-10.69,2.12-2.56,1.85-5.83-.7-7.97-8.32-7-16.66-13.97-25-20.94-.57-.47-1.23-.83-1.84-1.24Z" style="fill:#a3d6d2;"/><path d="m137.66,274.03c.31-.81,1.23-1.22,1.97-.93.73.28,1.15,1.23.87,1.96-.28.73-1.25,1.18-1.96.85-.82-.39-1.12-1.05-.89-1.88Z" style="fill:#a3d6d2;"/><path d="m140.98,260.04c.34-.73.99-1.14,1.86-.87.87.28,1.23,1,.96,1.87-.28.89-.99,1.19-1.88.96-.78-.19-1.23-1.1-.95-1.97Z" style="fill:#a3d6d2;"/><path d="m242.25,93.6c-.33.7-.97,1.05-1.85.83-.75-.19-1.22-1.15-.98-1.89.23-.69,1.22-1.19,1.92-.97.76.24,1.2,1.12.9,2.03Z" style="fill:#a3d6d2;"/><path d="m236.15,106.39c.27-.76,1.17-1.17,1.93-.89.76.28,1.21,1.18.89,1.92-.36.85-1.05,1.16-1.93.9-.75-.22-1.17-1.18-.9-1.93Z" style="fill:#a3d6d2;"/><path d="m171.37,236.7c-.82-.39-1.11-1.05-.87-1.92.21-.76,1.17-1.24,1.89-.91.8.37,1.22,1.03.9,1.91-.31.86-1.02,1.12-1.91.92Z" style="fill:#a3d6d2;"/><path d="m262.38,94.95c.43-.85,1.1-1.18,1.95-.84.85.34,1.15,1.07.8,1.92-.35.85-1.07,1.18-1.92.83-.84-.35-1.09-1.05-.83-1.92Z" style="fill:#a3d6d2;"/><path d="m147.07,247.29c-.42.74-1.06,1.12-1.93.78-.88-.35-1.12-1.07-.85-1.93.23-.74,1.26-1.19,1.95-.85.8.39,1.11,1.06.83,2Z" style="fill:#a3d6d2;"/><path d="m206.66,131.68c.42-.82,1.09-1.17,1.94-.84.84.33,1.17,1.03.83,1.91-.34.89-1.08,1.16-1.91.86-.86-.32-1.09-1.05-.86-1.93Z" style="fill:#a3d6d2;"/><path d="m229.56,134.23c.25-.77,1.14-1.21,1.9-.91.87.34,1.17,1.02.93,1.89-.2.74-1.17,1.2-1.91.95-.74-.25-1.17-1.16-.92-1.93Z" style="fill:#a3d6d2;"/><path d="m150.39,233.27c-.26.76-1.16,1.22-1.9.93-.86-.34-1.17-1.01-.94-1.89.2-.74,1.16-1.2,1.9-.96.73.24,1.18,1.18.93,1.92Z" style="fill:#a3d6d2;"/><path d="m128.76,217.74c-.74-.35-1.08-.97-.77-1.86.32-.93,1.06-1.12,1.9-.91.72.18,1.22,1.27.9,1.93-.38.79-1.01,1.19-2.03.85Z" style="fill:#a3d6d2;"/><path d="m232.85,120.33c.26-.77,1.13-1.21,1.9-.93.89.33,1.16,1.03.94,1.9-.18.74-1.18,1.2-1.91.95-.74-.24-1.18-1.16-.93-1.92Z" style="fill:#a3d6d2;"/><path d="m157.35,240.48c.43-.85,1.09-1.2,1.95-.88.84.32,1.2,1.06.89,1.9-.31.85-1.05,1.16-1.91.85-.88-.32-1.09-1.03-.93-1.87Z" style="fill:#a3d6d2;"/><path d="m126.37,278.78c.85.29,1.33,1.19,1.02,1.92-.35.83-.99,1.2-1.89.89-.9-.31-1.2-1.03-.93-1.87.28-.87,1-1.13,1.8-.94Z" style="fill:#a3d6d2;"/><path d="m223.99,114.02c-.84-.38-1.22-1.05-.93-1.89.29-.85,1.03-1.19,1.89-.89.86.3,1.22.98.91,1.86-.31.89-.99,1.14-1.87.92Z" style="fill:#a3d6d2;"/><path d="m131.15,251.9c.37-.77.97-1.19,1.87-.9.86.29,1.26.94.97,1.84-.29.89-.98,1.23-1.85.95-.85-.28-1.2-.94-.99-1.89Z" style="fill:#a3d6d2;"/><path d="m151.85,220.32c-.88-.36-1.25-1.01-.99-1.89.27-.9.99-1.18,1.86-.98.77.17,1.25,1.11.97,1.87-.32.86-.96,1.19-1.84,1Z" style="fill:#a3d6d2;"/><path d="m155.98,253.48c.85.41,1.22,1.09.9,1.93-.32.84-1.06,1.17-1.92.84-.86-.32-1.18-1.02-.86-1.89.33-.88,1.02-1.1,1.87-.88Z" style="fill:#a3d6d2;"/><path d="m250.24,102.62c-.87-.36-1.25-.99-.97-1.87.28-.88.99-1.22,1.86-.95.88.28,1.25.99.97,1.85-.28.86-.98,1.16-1.86.96Z" style="fill:#a3d6d2;"/><path d="m209.95,117.82c.4-.82,1.04-1.22,1.91-.9.86.31,1.2,1.01.88,1.89-.31.88-1.03,1.21-1.88.92-.88-.3-1.11-1.03-.91-1.91Z" style="fill:#a3d6d2;"/><path d="m251.14,149.74c.77.33,1.13.95.84,1.85-.3.93-1.03,1.15-1.88.96-.71-.15-1.26-1.25-.95-1.91.36-.79.99-1.21,1.99-.9Z" style="fill:#a3d6d2;"/><path d="m226.29,148.09c.35-.75.96-1.16,1.86-.86.89.3,1.21,1.01.94,1.87-.28.89-1.02,1.16-1.88.95-.76-.18-1.2-1.14-.91-1.96Z" style="fill:#a3d6d2;"/><path d="m252.52,86.84c.41-.8.99-1.23,1.9-.94.91.29,1.18.99.98,1.85-.18.77-1.09,1.21-1.87.94-.9-.31-1.12-.99-1-1.85Z" style="fill:#a3d6d2;"/><path d="m127.85,265.77c.42-.77,1.04-1.17,1.92-.85.87.32,1.21,1.01.9,1.88-.31.88-1.04,1.18-1.89.89-.87-.3-1.13-1.01-.93-1.91Z" style="fill:#a3d6d2;"/><path d="m114.77,271.53c.41-.86,1.06-1.24,1.92-.91.85.32,1.17,1.02.85,1.9-.32.89-1.04,1.18-1.89.88-.86-.31-1.11-1.02-.89-1.87Z" style="fill:#a3d6d2;"/><path d="m167.16,248.75c.41-.89,1.08-1.26,1.93-.97.87.3,1.19,1.05.9,1.9-.3.86-1,1.22-1.88.91-.88-.31-1.11-1.01-.94-1.84Z" style="fill:#a3d6d2;"/><path d="m267.59,130.11c.74.44,1.14,1.09.77,1.95-.35.84-1.04,1.14-1.92.81-.75-.28-1.19-1.25-.84-1.93.41-.79,1.08-1.1,1.99-.82Z" style="fill:#a3d6d2;"/><path d="m270.9,116.24c.81.45,1.11,1.11.73,1.97-.39.86-1.09,1.08-1.95.73-.76-.31-1.13-1.25-.75-1.95.43-.79,1.1-1.07,1.97-.75Z" style="fill:#a3d6d2;"/><path d="m160.67,226.48c.44-.76,1.07-1.1,1.95-.77.78.29,1.19,1.2.84,1.92-.39.82-1.09,1.15-1.94.81-.85-.34-1.1-1.05-.85-1.96Z" style="fill:#a3d6d2;"/><path d="m259.14,108.79c.32-.76,1.01-1.08,1.85-.78.86.3,1.15,1,.85,1.89-.27.8-1.14,1.26-1.87.91-.79-.38-1.19-.99-.83-2.02Z" style="fill:#a3d6d2;"/><path d="m118.1,257.54c.36-.79,1.02-1.1,1.89-.85.78.23,1.15,1.13.84,1.91-.35.88-.99,1.17-1.87.88-.76-.24-1.16-1.12-.86-1.94Z" style="fill:#a3d6d2;"/><path d="m108.36,249.2c.35-.67.99-.98,1.87-.66.77.28,1.2,1.23.84,1.92-.41.78-1.06,1.16-1.95.82-.79-.3-1.13-1.14-.75-2.09Z" style="fill:#a3d6d2;"/><path d="m122.41,245.65c-.9-.3-1.34-1.15-1.04-1.93.34-.85,1-1.25,1.87-.95.86.3,1.21,1,.92,1.88-.29.89-.99,1.15-1.75.99Z" style="fill:#a3d6d2;"/><path d="m257.7,121.9c.77.28,1.2,1.16.87,1.91-.36.83-1.03,1.22-1.9.89-.85-.32-1.16-1.02-.87-1.91.26-.79,1.11-1.18,1.9-.9Z" style="fill:#a3d6d2;"/><path d="m243.44,130.36c-.74-.33-1.03-.99-.75-1.86.24-.78,1.16-1.22,1.9-.89.83.37,1.17,1.02.87,1.91-.27.8-1.1,1.18-2.02.84Z" style="fill:#a3d6d2;"/><path d="m252.49,136.69c.37-.83,1.02-1.19,1.89-.87.86.31,1.19.99.88,1.88-.32.9-1.04,1.21-1.88.91-.83-.3-1.17-1-.89-1.92Z" style="fill:#a3d6d2;"/><path d="m136.53,237.16c.72.32,1.01.98.73,1.85-.25.78-1.16,1.22-1.9.88-.83-.37-1.17-1.02-.87-1.91.27-.8,1.1-1.17,2.04-.82Z" style="fill:#a3d6d2;"/><path d="m216.42,139.96c.41-.84,1.05-1.23,1.92-.93.86.3,1.19.99.95,1.88-.21.78-1.11,1.2-1.89.91-.88-.33-1.14-.99-.98-1.86Z" style="fill:#a3d6d2;"/><path d="m272.22,103.15c.32-.82,1.14-1.18,1.92-.82.88.4,1.12,1.11.78,1.95-.33.81-1,1.08-1.84.79-.81-.28-1.17-1.12-.86-1.92Z" style="fill:#a3d6d2;"/><path d="m236.04,156.49c.39-1.05,1.11-1.34,1.94-1.05.84.29,1.21,1.01.9,1.89-.31.87-1,1.19-1.87.9-.9-.31-1.12-1-.96-1.73Z" style="fill:#a3d6d2;"/><path d="m141.09,210.1c.36-.76.99-1.13,1.87-.81.87.31,1.19.99.89,1.88-.31.91-1.05,1.19-1.87.9-.84-.29-1.17-.99-.88-1.97Z" style="fill:#a3d6d2;"/><path d="m246.64,116.38c-.62-.3-.96-.92-.66-1.75.32-.87,1.01-1.18,1.9-.9.82.26,1.22,1.14.86,1.9-.39.83-1.03,1.15-2.1.75Z" style="fill:#a3d6d2;"/><path d="m239.37,142.44c.43-.92,1.12-1.23,1.96-.9.85.33,1.15,1.06.82,1.92-.34.88-1.05,1.15-1.91.82-.88-.34-1.09-1.04-.87-1.84Z" style="fill:#a3d6d2;"/><path d="m138.66,225.99c-.82-.39-1.18-1.03-.87-1.9.31-.89,1.01-1.15,1.89-.89.8.24,1.2,1.09.89,1.88-.34.87-1.01,1.13-1.9.92Z" style="fill:#a3d6d2;"/><path d="m113.89,234.68c.14.53.54,1.22.43,1.82-.15.81-.93,1.13-1.77.93-.68-.15-1.19-1.31-.91-2.05.34-.92,1.12-.83,2.25-.7Z" style="fill:#a3d6d2;"/><path d="m152.63,267.39c.87.35,1.25,1,.97,1.86-.28.86-.98,1.23-1.86.94-.89-.28-1.22-.99-.94-1.85.28-.86.93-1.21,1.83-.96Z" style="fill:#a3d6d2;"/><path d="m124.7,229.75c.28-.69,1.34-1.18,1.96-.84.78.43,1.14,1.1.75,1.98-.36.8-1.02,1.08-1.85.8-.7-.23-1.14-1.26-.86-1.94Z" style="fill:#a3d6d2;"/><path d="m227.27,100.08c-.84-.31-1.2-1.08-.86-1.89.37-.87,1-1.16,1.9-.82.87.33,1.07.99.84,1.81-.24.83-1.07,1.2-1.88.9Z" style="fill:#a3d6d2;"/><path d="m221.04,128.08c-1.26-.52-1.48-1.28-1.25-2.09.22-.77.89-1.1,1.69-.9.79.2,1.44,1.48.98,2.1-.36.47-1.06.68-1.42.89Z" style="fill:#a3d6d2;"/><path d="m105.01,263.21c.31-.71.92-1.07,1.83-.79.83.26,1.23,1.09.91,1.88-.33.81-.99,1.11-1.82.92-.82-.19-1.23-1.06-.92-2Z" style="fill:#a3d6d2;"/></svg>