<?xml version="1.0" encoding="UTF-8"?><svg id="Layer_1" xmlns="http://www.w3.org/2000/svg" viewBox="0 0 740 727"><path d="m306.72,40.93v1.75c5.44,0,10.58,2.63,13.77,7.02l359.49,496.62c5.49,7.58,3.79,18.22-3.8,23.7l-185.95,134.6c-2.92,2.11-6.35,3.23-9.94,3.23-5.44,0-10.58-2.63-13.77-7.02L107.03,204.21c-2.66-3.67-3.73-8.16-3.01-12.64.72-4.48,3.13-8.41,6.81-11.07L296.78,45.9c2.92-2.11,6.35-3.23,9.94-3.23v-1.75m0,0c-3.8,0-7.65,1.16-10.96,3.56L109.8,179.08c-8.38,6.06-10.25,17.77-4.19,26.15l359.49,496.62c3.66,5.06,9.38,7.75,15.18,7.75,3.8,0,7.65-1.16,10.96-3.56l185.95-134.6c8.38-6.06,10.25-17.77,4.19-26.15L321.9,48.67c-3.66-5.06-9.38-7.75-15.18-7.75h0Z" style="fill:#a3d6d2;"/><path d="m303.35,66.67v1.75c4.82,0,9.39,2.33,12.22,6.23l339.16,468.54c2.36,3.26,3.31,7.24,2.67,11.22-.64,3.97-2.78,7.46-6.04,9.82l-158.13,114.46c-2.59,1.87-5.64,2.86-8.82,2.86-4.83,0-9.39-2.33-12.22-6.23L133.04,206.78c-4.87-6.73-3.36-16.17,3.37-21.04l158.13-114.46c2.59-1.87,5.64-2.86,8.82-2.86v-1.75m0,0c-3.42,0-6.87,1.04-9.85,3.2l-158.13,114.46c-7.52,5.45-9.21,15.96-3.76,23.48l339.16,468.54c3.29,4.54,8.42,6.96,13.63,6.96,3.42,0,6.87-1.04,9.85-3.2l158.13-114.46c7.52-5.45,9.21-15.96,3.76-23.48L316.99,73.63c-3.29-4.54-8.42-6.96-13.63-6.96h0Z" style="fill:#a3d6d2;"/><path d="m491.01,536.23l-168.76-233.14-88.54-122.32s-5.67-12.01,4.86-20.44c0,0,11.77-6.72,20,2.87l257.1,355.18s35.04-10.68,48.33,26.79c0,0,8.73,29.97-18.5,46.65,0,0-26.71,15.02-50.2-7.29,0,0-18.57-23.27-4.29-48.3Z" style="fill:none; stroke:#a3d6d2; stroke-miterlimit:10; stroke-width:1.75px;"/><line x1="296.37" y1="267.34" x2="321.04" y2="249.49" style="fill:none; stroke:#a3d6d2; stroke-miterlimit:10; stroke-width:1.75px;"/><rect x="189.24" y="216.31" width="53.57" height="9.8" transform="translate(-88.68 168.69) rotate(-35.9)" style="fill:none; stroke:#a3d6d2; stroke-miterlimit:10; stroke-width:1.75px;"/><rect x="220.04" y="232.32" width="36.04" height="9.8" transform="translate(-93.88 184.65) rotate(-35.9)" style="fill:none; stroke:#a3d6d2; stroke-miterlimit:10; stroke-width:1.75px;"/><rect x="234.2" y="251.88" width="36.04" height="9.8" transform="translate(-102.66 196.67) rotate(-35.9)" style="fill:none; stroke:#a3d6d2; stroke-miterlimit:10; stroke-width:1.75px;"/><rect x="248.36" y="271.44" width="36.04" height="9.8" transform="translate(-111.44 208.69) rotate(-35.9)" style="fill:none; stroke:#a3d6d2; stroke-miterlimit:10; stroke-width:1.75px;"/><rect x="276.88" y="310.84" width="36.04" height="9.8" transform="translate(-129.12 232.9) rotate(-35.9)" style="fill:none; stroke:#a3d6d2; stroke-miterlimit:10; stroke-width:1.75px;"/><rect x="291.04" y="330.4" width="36.04" height="9.8" transform="translate(-137.9 244.91) rotate(-35.9)" style="fill:none; stroke:#a3d6d2; stroke-miterlimit:10; stroke-width:1.75px;"/><rect x="305.2" y="349.96" width="36.04" height="9.8" transform="translate(-146.68 256.93) rotate(-35.9)" style="fill:none; stroke:#a3d6d2; stroke-miterlimit:10; stroke-width:1.75px;"/><rect x="332.08" y="387.09" width="36.04" height="9.8" transform="translate(-163.35 279.74) rotate(-35.9)" style="fill:none; stroke:#a3d6d2; stroke-miterlimit:10; stroke-width:1.75px;"/><rect x="346.23" y="406.65" width="36.04" height="9.8" transform="translate(-172.13 291.76) rotate(-35.9)" style="fill:none; stroke:#a3d6d2; stroke-miterlimit:10; stroke-width:1.75px;"/><rect x="360.39" y="426.21" width="36.04" height="9.8" transform="translate(-180.91 303.78) rotate(-35.9)" style="fill:none; stroke:#a3d6d2; stroke-miterlimit:10; stroke-width:1.75px;"/><rect x="388.71" y="465.33" width="36.04" height="9.8" transform="translate(-198.47 327.81) rotate(-35.9)" style="fill:none; stroke:#a3d6d2; stroke-miterlimit:10; stroke-width:1.75px;"/><rect x="402.87" y="484.89" width="36.04" height="9.8" transform="translate(-207.25 339.83) rotate(-35.9)" style="fill:none; stroke:#a3d6d2; stroke-miterlimit:10; stroke-width:1.75px;"/><rect x="417.23" y="504.73" width="36.04" height="9.8" transform="translate(-216.15 352.02) rotate(-35.9)" style="fill:none; stroke:#a3d6d2; stroke-miterlimit:10; stroke-width:1.75px;"/><rect x="276.03" y="153.49" width="53.57" height="9.8" transform="translate(-35.35 207.64) rotate(-35.9)" style="fill:none; stroke:#a3d6d2; stroke-miterlimit:10; stroke-width:1.75px;"/><rect x="293.18" y="179.38" width="36.04" height="9.8" transform="translate(-48.94 217.48) rotate(-35.9)" style="fill:none; stroke:#a3d6d2; stroke-miterlimit:10; stroke-width:1.75px;"/><rect x="307.34" y="198.94" width="36.04" height="9.8" transform="translate(-57.72 229.5) rotate(-35.9)" style="fill:none; stroke:#a3d6d2; stroke-miterlimit:10; stroke-width:1.75px;"/><rect x="321.29" y="218.22" width="36.04" height="9.8" transform="translate(-66.38 241.34) rotate(-35.9)" style="fill:none; stroke:#a3d6d2; stroke-miterlimit:10; stroke-width:1.75px;"/><rect x="349.19" y="256.77" width="36.04" height="9.8" transform="translate(-83.68 265.03) rotate(-35.9)" style="fill:none; stroke:#a3d6d2; stroke-miterlimit:10; stroke-width:1.75px;"/><rect x="363.35" y="276.33" width="36.04" height="9.8" transform="translate(-92.46 277.04) rotate(-35.9)" style="fill:none; stroke:#a3d6d2; stroke-miterlimit:10; stroke-width:1.75px;"/><rect x="377.51" y="295.89" width="36.04" height="9.8" transform="translate(-101.24 289.06) rotate(-35.9)" style="fill:none; stroke:#a3d6d2; stroke-miterlimit:10; stroke-width:1.75px;"/><rect x="404.39" y="333.02" width="36.04" height="9.8" transform="translate(-117.91 311.87) rotate(-35.9)" style="fill:none; stroke:#a3d6d2; stroke-miterlimit:10; stroke-width:1.75px;"/><rect x="418.55" y="352.58" width="36.04" height="9.8" transform="translate(-126.69 323.89) rotate(-35.9)" style="fill:none; stroke:#a3d6d2; stroke-miterlimit:10; stroke-width:1.75px;"/><rect x="432.71" y="372.14" width="36.04" height="9.8" transform="translate(-135.47 335.91) rotate(-35.9)" style="fill:none; stroke:#a3d6d2; stroke-miterlimit:10; stroke-width:1.75px;"/><rect x="461.02" y="411.26" width="36.04" height="9.8" transform="translate(-153.02 359.94) rotate(-35.9)" style="fill:none; stroke:#a3d6d2; stroke-miterlimit:10; stroke-width:1.75px;"/><rect x="475.18" y="430.82" width="36.04" height="9.8" transform="translate(-161.8 371.96) rotate(-35.9)" style="fill:none; stroke:#a3d6d2; stroke-miterlimit:10; stroke-width:1.75px;"/><rect x="489.54" y="450.66" width="36.04" height="9.8" transform="translate(-170.71 384.15) rotate(-35.9)" style="fill:none; stroke:#a3d6d2; stroke-miterlimit:10; stroke-width:1.75px;"/><rect x="246.9" y="296.15" width="53.57" height="9.8" transform="translate(-124.54 217.67) rotate(-35.9)" style="fill:none; stroke:#a3d6d2; stroke-miterlimit:10; stroke-width:1.75px;"/><rect x="333.7" y="233.33" width="53.57" height="9.8" transform="translate(-71.21 256.62) rotate(-35.9)" style="fill:none; stroke:#a3d6d2; stroke-miterlimit:10; stroke-width:1.75px;"/><rect x="301.45" y="370.8" width="53.57" height="9.8" transform="translate(-157.95 263.83) rotate(-35.9)" style="fill:none; stroke:#a3d6d2; stroke-miterlimit:10; stroke-width:1.75px;"/><rect x="388.24" y="307.98" width="53.57" height="9.8" transform="translate(-104.63 302.78) rotate(-35.9)" style="fill:none; stroke:#a3d6d2; stroke-miterlimit:10; stroke-width:1.75px;"/><rect x="359.11" y="450.64" width="53.57" height="9.8" transform="translate(-193.81 312.81) rotate(-35.9)" style="fill:none; stroke:#a3d6d2; stroke-miterlimit:10; stroke-width:1.75px;"/><rect x="445.91" y="387.82" width="53.57" height="9.8" transform="translate(-140.49 351.76) rotate(-35.9)" style="fill:none; stroke:#a3d6d2; stroke-miterlimit:10; stroke-width:1.75px;"/><rect x="415.47" y="529.49" width="53.57" height="9.8" transform="translate(-229.34 360.83) rotate(-35.9)" style="fill:none; stroke:#a3d6d2; stroke-miterlimit:10; stroke-width:1.75px;"/><rect x="502.26" y="466.66" width="53.57" height="9.8" transform="translate(-176.02 399.78) rotate(-35.9)" style="fill:none; stroke:#a3d6d2; stroke-miterlimit:10; stroke-width:1.75px;"/></svg>